HIERARCHY
ROOT Hips
{
	OFFSET 0.000000 0.000000 0.000000
	CHANNELS 6 Xposition Yposition Zposition Xrotation Yrotation Zrotation
	JOINT LeftUpLeg_virtual
	{
		OFFSET 0.000000 0.000000 0.000000
		CHANNELS 3 Xrotation Yrotation Zrotation
		JOINT LeftUpLeg
		{
			OFFSET 11.394100 -6.187798 -0.413800
			CHANNELS 3 Xrotation Yrotation Zrotation
			JOINT LeftLeg
			{
				OFFSET 0.430247 -32.302673 3.732800
				CHANNELS 3 Xrotation Yrotation Zrotation
				JOINT LeftFoot
				{
					OFFSET -0.430247 -48.264931 -6.423300
					CHANNELS 3 Xrotation Yrotation Zrotation
					JOINT LeftToeBase
					{
						OFFSET 4.230900 -16.068199 23.438400
						CHANNELS 3 Xrotation Yrotation Zrotation
						JOINT LeftToe_End
						{
							OFFSET 4.510700 0.695400 19.974600
							CHANNELS 3 Xrotation Yrotation Zrotation
							End Site
							{
								OFFSET 0 0 0
							}
						}
					}
				}
			}
		}
	}
	JOINT RightUpLeg_virtual
	{
		OFFSET 0.000000 0.000000 0.000000
		CHANNELS 3 Xrotation Yrotation Zrotation
		JOINT RightUpLeg
		{
			OFFSET -11.333700 -6.187798 -0.413800
			CHANNELS 3 Xrotation Yrotation Zrotation
			JOINT RightLeg
			{
				OFFSET -0.430392 -32.302628 3.733000
				CHANNELS 3 Xrotation Yrotation Zrotation
				JOINT RightFoot
				{
					OFFSET 0.430392 -48.264973 -6.423500
					CHANNELS 3 Xrotation Yrotation Zrotation
					JOINT RightToeBase
					{
						OFFSET -4.230900 -16.068199 23.438400
						CHANNELS 3 Xrotation Yrotation Zrotation
						JOINT RightToe_End
						{
							OFFSET -4.510700 0.695400 19.974600
							CHANNELS 3 Xrotation Yrotation Zrotation
							End Site
							{
								OFFSET 0 0 0
							}
						}
					}
				}
			}
		}
	}
	JOINT Spine_virtual
	{
		OFFSET 0.000000 0.000000 0.000000
		CHANNELS 3 Xrotation Yrotation Zrotation
		JOINT Spine
		{
			OFFSET -0.002400 12.777504 0.315300
			CHANNELS 3 Xrotation Yrotation Zrotation
			JOINT Spine1
			{
				OFFSET -0.002067 5.816869 0.032633
				CHANNELS 3 Xrotation Yrotation Zrotation
				JOINT Spine1_split
				{
					OFFSET -0.002067 5.816869 0.032633
					CHANNELS 3 Xrotation Yrotation Zrotation
					JOINT Spine2
					{
						OFFSET -0.002067 5.816869 0.032633
						CHANNELS 3 Xrotation Yrotation Zrotation
						JOINT Neck_virtual
						{
							OFFSET 0.000000 0.000000 0.000000
							CHANNELS 3 Xrotation Yrotation Zrotation
							JOINT Neck
							{
								OFFSET -0.003700 21.199493 -0.826900
								CHANNELS 3 Xrotation Yrotation Zrotation
								JOINT Head
								{
									OFFSET 0.000000 20.442200 4.834800
									CHANNELS 3 Xrotation Yrotation Zrotation
									JOINT HeadTop_End
									{
										OFFSET 0.000000 34.668396 4.968400
										CHANNELS 3 Xrotation Yrotation Zrotation
										End Site
										{
											OFFSET 0 0 0
										}
									}
								}
							}
						}
						JOINT LeftShoulder_virtual
						{
							OFFSET 0.000000 0.000000 0.000000
							CHANNELS 3 Xrotation Yrotation Zrotation
							JOINT LeftShoulder
							{
								OFFSET 3.288150 8.794197 -1.372250
								CHANNELS 3 Xrotation Yrotation Zrotation
								JOINT LeftShoulder_split
								{
									OFFSET 3.288150 8.794197 -1.372250
									CHANNELS 3 Xrotation Yrotation Zrotation
									JOINT LeftArm
									{
										OFFSET 11.953299 -2.279007 -0.146200
										CHANNELS 3 Xrotation Yrotation Zrotation
										JOINT LeftForeArm
										{
											OFFSET 18.448900 0.000000 0.000000
											CHANNELS 3 Xrotation Yrotation Zrotation
											JOINT LeftHand
											{
												OFFSET 29.527798 0.000000 0.000000
												CHANNELS 3 Xrotation Yrotation Zrotation
												End Site
												{
													OFFSET 0 0 0
												}
											}
										}
									}
								}
							}
						}
						JOINT RightShoulder_virtual
						{
							OFFSET 0.000000 0.000000 0.000000
							CHANNELS 3 Xrotation Yrotation Zrotation
							JOINT RightShoulder
							{
								OFFSET -3.249400 8.794197 -1.372250
								CHANNELS 3 Xrotation Yrotation Zrotation
								JOINT RightShoulder_split
								{
									OFFSET -3.249400 8.794197 -1.372250
									CHANNELS 3 Xrotation Yrotation Zrotation
									JOINT RightArm
									{
										OFFSET -11.953299 -2.279007 -0.146200
										CHANNELS 3 Xrotation Yrotation Zrotation
										JOINT RightForeArm
										{
											OFFSET -18.448900 0.000000 0.000000
											CHANNELS 3 Xrotation Yrotation Zrotation
											JOINT RightHand
											{
												OFFSET -29.527802 0.000000 0.000000
												CHANNELS 3 Xrotation Yrotation Zrotation
												End Site
												{
													OFFSET 0 0 0
												}
											}
										}
									}
								}
							}
						}
					}
				}
			}
		}
	}
}
MOTION
Frames: 5
Frame Time: 0.03333333
-0.631264 135.142365 322.994812 0.000000 0.000000 0.000000 19.310917 -38.887156 29.940899 -89.712055 -17.953516 12.661664 87.851908 10.280532 3.103839 -8.825595 0.759726 3.820518 3.887978 -0.969507 -8.302711 0.000000 0.000000 0.000000 15.103092 -36.189501 25.632411 -102.842548 -13.248398 -9.851390 82.615427 16.148977 9.459405 32.203403 17.542304 8.527273 -5.298294 3.915685 -3.409985 0.000000 0.000000 0.000000 14.713020 -29.790468 25.168175 33.737723 2.604590 -28.163517 13.644562 -0.127709 -3.226153 1.993039 -0.353727 0.458035 0.000000 0.000000 0.000000 18.509666 -1.279222 -0.156516 -2.258051 13.553140 -13.673240 -38.381842 -4.768553 0.565621 0.000000 0.000000 0.000000 17.333466 -0.699781 -0.916830 3.211098 -17.228838 -3.695517 1.323538 -2.153790 -0.473974 -87.278111 3.089152 -4.890190 10.536771 -56.707560 6.329395 0.000000 0.000000 0.000000 17.529474 -1.482613 -0.696057 5.972383 28.478733 -0.711207 -1.822198 3.709428 6.243341 -64.801577 -8.700591 40.622513 -82.394963 24.439257 59.396800 0.000000 0.000000 0.000000 
-0.916178 133.542252 333.271820 0.000000 0.000000 0.000000 19.353488 -35.123456 27.413712 -83.439100 -14.492312 17.179804 78.300715 11.236661 2.655113 -12.029899 2.795841 5.007992 1.752595 -1.079991 -7.571274 0.000000 0.000000 0.000000 17.105321 -35.119467 24.554795 -99.140469 -17.258129 -11.514353 61.355248 10.722493 13.477742 30.729892 14.842303 8.765008 -5.748867 4.545127 -2.921044 0.000000 0.000000 0.000000 16.418291 -28.232512 24.098333 34.037595 3.208365 -26.154241 13.078418 -0.492067 -3.216286 2.817690 0.287039 0.389671 0.000000 0.000000 0.000000 18.058156 -1.514300 -0.408208 -2.719140 14.061512 -15.833864 -41.251529 -5.308841 1.189592 0.000000 0.000000 0.000000 16.740905 -1.001352 -1.047697 3.430395 -15.416123 -3.825591 1.597846 -2.935970 -0.741221 -85.452913 -0.024128 -2.925519 0.762929 -57.168601 -1.906555 0.000000 0.000000 0.000000 16.936014 -1.850874 -0.872692 5.593678 27.041040 1.533357 -1.262389 2.319265 6.472692 -59.809911 -8.454052 42.620411 -83.861677 26.353870 63.107615 0.000000 0.000000 0.000000 
-1.399657 129.847916 343.029114 0.000000 0.000000 0.000000 17.587015 -30.242193 23.876538 -79.809524 -11.439806 20.858605 69.762466 11.040847 2.791693 -13.857237 3.410129 4.893459 -0.137755 -1.130928 -6.103195 0.000000 0.000000 0.000000 18.062654 -32.883795 23.084149 -91.066741 -17.924353 -12.417033 42.743809 5.500899 14.409667 29.539632 11.060245 8.767713 -4.346619 4.615111 -1.199704 0.000000 0.000000 0.000000 16.821668 -26.914116 22.449833 33.292265 4.147643 -23.722002 12.177791 -0.867047 -2.835925 2.681753 0.652843 0.212025 0.000000 0.000000 0.000000 16.977245 -1.674332 -0.241211 -2.399178 13.996603 -17.630719 -43.036489 -4.766573 1.540785 0.000000 0.000000 0.000000 15.910197 -1.227136 -0.642024 3.517654 -12.369562 -3.545462 2.781124 -3.508939 -1.221679 -83.470321 -0.761650 -1.300804 -6.858378 -58.550171 -8.452393 0.000000 0.000000 0.000000 16.155535 -2.107921 -0.612574 5.339563 25.691775 3.998528 -1.671653 1.418114 6.221345 -51.829685 -6.977556 44.192891 -83.660979 28.277622 66.130711 0.000000 0.000000 0.000000 
-1.537710 124.671295 352.863037 0.000000 0.000000 0.000000 15.601021 -25.611357 20.629348 -78.209750 -9.821873 22.941969 62.168792 9.964502 3.453337 -14.500270 3.015670 3.297788 -0.853746 -1.154068 -4.763136 0.000000 0.000000 0.000000 17.674535 -29.467530 21.159958 -79.434861 -14.859029 -12.375062 30.542250 3.591669 13.084348 28.182598 7.971173 10.098075 -2.706023 4.172568 0.853172 0.000000 0.000000 0.000000 16.550457 -25.913422 20.690180 31.871783 5.051636 -21.102254 10.925967 -1.268524 -2.272798 1.636765 1.300205 0.258673 0.000000 0.000000 0.000000 15.407339 -1.821725 0.211985 -1.060736 13.473406 -18.799623 -43.338688 -3.093408 1.617054 0.000000 0.000000 0.000000 14.841152 -1.432697 0.082109 3.443960 -8.971651 -3.052989 4.648154 -3.399636 -1.570013 -82.009801 1.102165 0.292958 -13.648303 -61.035923 -14.556439 0.000000 0.000000 0.000000 15.189536 -2.314691 -0.055527 5.138367 24.492102 6.386772 -2.591996 0.854109 5.869685 -41.521441 -5.419271 44.793757 -82.865405 30.527271 69.072385 0.000000 0.000000 0.000000 
-1.416446 118.746635 363.317749 0.000000 0.000000 0.000000 14.302715 -22.789532 18.051949 -77.153202 -9.762378 23.319301 55.034775 9.157274 4.321807 -14.096982 2.076842 1.293200 -1.001709 -1.152988 -3.762103 0.000000 0.000000 0.000000 17.012686 -26.625341 19.173929 -65.360935 -8.839676 -10.854186 24.367118 4.311422 11.034961 24.349665 5.145302 11.789670 -1.912608 3.191531 2.270067 0.000000 0.000000 0.000000 16.021763 -25.577672 18.765019 30.065823 5.881389 -18.259309 9.424666 -1.638801 -1.754167 0.698682 0.960801 0.303592 0.000000 0.000000 0.000000 13.429443 -2.064206 0.657693 1.539078 12.765895 -19.168374 -41.907268 -0.257545 1.547443 0.000000 0.000000 0.000000 13.516700 -1.668640 0.792209 3.123992 -6.073435 -2.408910 6.006113 -2.533047 -2.481107 -81.363850 5.030259 1.650976 -20.955724 -64.174292 -21.506647 0.000000 0.000000 0.000000 13.920677 -2.506908 0.520654 4.854787 23.267582 8.762255 -3.677588 0.444463 5.847518 -29.805720 -5.542750 44.633124 -83.047963 33.583767 73.168552 0.000000 0.000000 0.000000 
